<?xml version="1.0"?>
<svg width="346.69064" height="376.24026" xmlns="http://www.w3.org/2000/svg" xmlns:svg="http://www.w3.org/2000/svg" version="1.1" xml:space="preserve">
 <defs id="defs1">
  <clipPath clipPathUnits="userSpaceOnUse" id="clipPath16-9">
   <path d="m0,792l612,0l0,-792l-612,0l0,792z" id="path16-1" transform="translate(-555.87241,-365.75221)"/>
  </clipPath>
  <clipPath clipPathUnits="userSpaceOnUse" id="clipPath10-17">
   <path d="m0,792l612,0l0,-792l-612,0l0,792z" id="path10-20" transform="translate(-392.76001,-397.76891)"/>
  </clipPath>
  <clipPath clipPathUnits="userSpaceOnUse" id="clipPath18-9">
   <path d="m0,792l612,0l0,-792l-612,0l0,792z" id="path18-2" transform="translate(-448.41921,-403.68561)"/>
  </clipPath>
  <clipPath clipPathUnits="userSpaceOnUse" id="clipPath20-5">
   <path d="m0,792l612,0l0,-792l-612,0l0,792z" id="path20-7" transform="translate(-498.92281,-406.52891)"/>
  </clipPath>
 </defs>
 <g class="layer">
  <title>Layer 1</title>
  <g id="layer-MC0" transform="translate(599.77856,-175.84871)">
   <path d="m-534.96,204.54c-9.68,0 -18.79,3.77 -25.62,10.62c-6.86,6.84 -10.63,15.94 -10.63,25.63l0,167.58c0,3.36 0.48,6.63 1.36,9.78c1.39,4.98 3.83,9.6 7.23,13.6c0.65,0.77 1.31,1.52 2.03,2.24c6.83,6.85 15.93,10.62 25.63,10.62l4.87,0l61.15,0l23.5,0c2.6,0 5.28,0.54 7.77,1.57c24.92,20.1 45.98,46.08 67.41,65.16l0,-46.33c0,-12.2 8.2,-20.4 20.39,-20.4l32.1,0c9.7,0 18.81,-3.77 25.63,-10.61c6.85,-6.84 10.63,-15.94 10.63,-25.63l0,-167.58c0,-9.69 -3.78,-18.79 -10.63,-25.62c-6.83,-6.86 -15.94,-10.63 -25.63,-10.63l-217.19,0z" fill="#ffffff" id="rect3" stroke-width="0.48"/>
   <path clip-path="url(#clipPath10-17)" d="m0,0c12.92,0 23.39,10.48 23.39,23.41c0,12.91 -10.47,23.39 -23.39,23.39c-12.92,0 -23.39,-10.48 -23.39,-23.39c0,-12.93 10.47,-23.41 23.39,-23.41" fill="#6654ff" fill-rule="nonzero" id="path9-0" transform="matrix(1.3333333,0,0,-1.3333333,-499.0658,365.49044)"/>
   <path clip-path="url(#clipPath16-9)" d="m0,0c0,-7.27 -2.83,-14.09 -7.97,-19.22c-5.12,-5.13 -11.95,-7.96 -19.22,-7.96l-24.08,0c-9.14,0 -15.29,-6.15 -15.29,-15.3l0,-34.75l-45.58,45.56c-0.25,0.27 -0.5,0.48 -0.74,0.68l-0.05,0.04c-1.26,1.1 -2.67,1.97 -4.19,2.59c-1.86,0.78 -3.88,1.18 -5.83,1.18l-17.62,0l-45.86,0l-3.66,0c-7.27,0 -14.1,2.83 -19.22,7.96c-0.54,0.54 -1.04,1.11 -1.53,1.69c-2.54,2.99 -4.37,6.46 -5.42,10.2c-0.65,2.36 -1.02,4.81 -1.02,7.33l0,125.69c0,7.26 2.84,14.09 7.98,19.22c5.12,5.13 11.95,7.97 19.21,7.97l162.9,0c7.26,0 14.09,-2.84 19.22,-7.98c5.14,-5.12 7.97,-11.95 7.97,-19.21l0,-125.69zm7.14,160.02c-9.18,9.18 -21.37,14.23 -34.33,14.23l-162.9,0c-12.97,0 -25.16,-5.05 -34.33,-14.23c-9.17,-9.18 -14.23,-21.37 -14.23,-34.33l0,-112.63l0,-13.06c0,-12.97 5.05,-25.16 14.23,-34.34c5.46,-5.46 12.01,-9.42 19.14,-11.76c4.85,-1.59 9.95,-2.46 15.19,-2.46l3.66,0l45.86,0l15.1,0l55.54,-55.54c3.87,-3.87 9.33,-4.88 14.61,-2.7c5.04,2.09 10.13,7.5 10.13,14.89l0,43.35l18,0c12.96,0 25.15,5.05 34.34,14.23c9.17,9.18 14.22,21.37 14.22,34.33l0,125.69c0,12.96 -5.05,25.15 -14.22,34.33" fill="#6654ff" fill-rule="nonzero" id="path15-01" transform="matrix(1.3333333,0,0,-1.3333333,-281.5826,408.17937)"/>
   <path clip-path="url(#clipPath18-9)" d="m0,0c9.65,0 17.49,7.83 17.49,17.49c0,9.65 -7.84,17.48 -17.49,17.48c-9.66,0 -17.49,-7.83 -17.49,-17.48c0,-9.66 7.83,-17.49 17.49,-17.49" fill="#6654ff" fill-rule="nonzero" id="path17-9" transform="matrix(1.3333333,0,0,-1.3333333,-424.85353,357.6015)"/>
   <path clip-path="url(#clipPath20-5)" d="m0,0c8.09,0 14.65,6.55 14.65,14.65c0,8.08 -6.56,14.63 -14.65,14.63c-8.08,0 -14.63,-6.55 -14.63,-14.63c0,-8.1 6.55,-14.65 14.63,-14.65" fill="#6654ff" fill-rule="nonzero" id="path19-4" transform="matrix(1.3333333,0,0,-1.3333333,-357.5154,353.81044)"/>
  </g>
 </g>
</svg>